<?xml version="1.0" encoding="utf-8"?>
<!-- Generator: Adobe Illustrator 23.0.5, SVG Export Plug-In . SVG Version: 6.00 Build 0)  -->
<svg version="1.1" id="Layer_1" xmlns="http://www.w3.org/2000/svg" xmlns:xlink="http://www.w3.org/1999/xlink" x="0px" y="0px"
	 viewBox="0 0 195 35" style="enable-background:new 0 0 195 35;" xml:space="preserve">
<style type="text/css">
	.st0{fill:#DCEEE4;}
	.st1{fill:#BABBAF;}
	.st2{fill:#FFFFFF;}
	.st3{fill:#66873A;}
	.st4{fill:#999A8E;}
	.st5{fill:#F6C579;}
	.st6{fill:#D8DACB;}
	.st7{fill:#917951;}
	.st8{fill:#D5C1A3;}
	.st9{fill:none;stroke:#FFFFFF;stroke-miterlimit:10;}
	.st10{fill:#E9ECF0;}
	.st11{font-family:'MyriadPro-Regular';}
	.st12{font-size:14.8636px;}
	.st13{fill:#E9ECF0;stroke:#FFFFFF;stroke-miterlimit:10;}
</style>
<g>
	<g>
		<g>
			<rect x="4.28" y="25.07" class="st0" width="4.1" height="7.78"/>
			<rect x="18.18" y="12.54" class="st0" width="4.1" height="20.93"/>
			<path id="foundation_2_" class="st1" d="M4.28,32.58h17.99l0,0c0,0.78-0.61,1.42-1.36,1.42H5.64C4.89,34,4.28,33.37,4.28,32.58
				L4.28,32.58z"/>
			<path class="st2" d="M17.57,11.94c0,0.65-2.61,1.17-5.82,1.17c-0.33,0-0.66,0-0.97-0.02c-0.12,0-0.24-0.01-0.35-0.02
				c-0.02,0.05-0.04,0.09-0.08,0.13c-1.07,0.27-2.69,0.44-4.52,0.44H5.75C2.57,13.64,0,13.12,0,12.48c0-0.61,2.3-1.11,5.24-1.17
				c0.39-0.89,1.42-1.53,2.63-1.53c0.97,0,1.82,0.41,2.32,1.03c0.49-0.03,1.02-0.04,1.56-0.04C14.96,10.77,17.57,11.3,17.57,11.94z"
				/>
			<rect x="10.13" y="21.02" class="st3" width="4.37" height="11.62"/>
			<g>
				<g>
					<path class="st4" d="M16.44,20.25c-2.41,0-4.81,0-7.22,0c0,0.07-0.01,0.14-0.01,0.21c2.41,0,4.82,0,7.24,0
						C16.44,20.39,16.44,20.32,16.44,20.25z"/>
					<path class="st4" d="M15.55,28.01c0-1.81,0-3.57,0-5.42c-1.86,0-3.64,0-5.4,0c0,1.86,0,3.65,0,5.42
						C11.99,28.01,13.75,28.01,15.55,28.01z"/>
					<path class="st4" d="M14.2,19.56c0.16,0.22,0.54,0.27,1.01,0.48c-0.45-4.43-0.86-8.54-1.28-12.68c-0.77,0-1.46,0-2.2,0
						c-0.42,4.2-0.83,8.33-1.27,12.68c0.47-0.21,0.84-0.24,0.97-0.45C12.43,18.09,13.24,18.19,14.2,19.56z"/>
					<path class="st4" d="M11.86,19.85c0.65,0,1.27,0,2,0C13.03,18.53,12.54,18.54,11.86,19.85z"/>
					<path class="st5" d="M14.24,5.6h-2.92c0.05-0.08,0.14-0.16,0.3-0.24c1.04-0.56,0.73-1.75,0.9-2.71c0.1-0.54,0.1-1.1,0.15-1.65
						c0.07,0,0.13,0,0.2-0.01c0.1,1,0.29,2,0.29,3c-0.01,0.69,0.37,1.14,0.77,1.35C14.1,5.44,14.19,5.52,14.24,5.6z"/>
					<path class="st4" d="M15.77,28.01c-1.96,0-3.92,0-5.88,0c-0.37,0.36-0.74,0.72-1.11,1.08h8.08
						C16.5,28.73,16.14,28.37,15.77,28.01z"/>
					<rect x="11.1" y="5.6" class="st4" width="3.35" height="1.76"/>
				</g>
				<path class="st6" d="M15.21,20.24c-0.47-0.22-0.85-0.27-1.01-0.49c-0.96-1.39-1.77-1.49-2.77,0.05
					c-0.13,0.21-0.5,0.24-0.97,0.45c0.44-4.42,0.85-8.62,1.27-12.89c0.74,0,1.43,0,2.2,0C14.35,11.57,14.76,15.74,15.21,20.24z
					 M12.9,8.59c-0.04,0.01-0.08,0.02-0.13,0.04c0,2.97,0,5.93,0,8.9c0.04,0,0.08,0,0.13,0C12.9,14.55,12.9,11.57,12.9,8.59z"/>
				<path class="st6" d="M15.77,21.9c0,2.09,0,4.07,0,6.11c-1.97,0-3.88,0-5.88,0c0-2,0-4.01,0-6.11
					C11.81,21.9,13.75,21.9,15.77,21.9z M14.7,27.41c0-1.16,0.01-2.23,0-3.31c-0.01-0.81-1.37-1.98-2.07-1.68
					c-0.61,0.26-1.52,0.68-1.62,1.18c-0.24,1.21-0.08,2.51-0.08,3.81C12.26,27.41,13.43,27.41,14.7,27.41z"/>
				<path class="st6" d="M8.78,30.63c0-0.56,0-1.02,0-1.54c2.71,0,5.37,0,8.08,0c0,0.53,0,1.01,0,1.54
					C14.16,30.63,11.53,30.63,8.78,30.63z"/>
				<path class="st6" d="M7.32,32.71c0-0.56,0-1.02,0-1.54c3.69,0,7.32,0,11.02,0c0,0.53,0,1.01,0,1.54
					C14.65,32.71,11.06,32.71,7.32,32.71z"/>
				<path class="st6" d="M9.22,20.25c2.41,0,4.81,0,7.22,0c0,0.07,0,0.14,0,0.21c-2.41,0-4.82,0-7.24,0
					C9.21,20.39,9.21,20.32,9.22,20.25z"/>
				<path class="st5" d="M12.9,8.57c0,2.93,0,5.86,0,8.79c-0.04,0-0.08,0-0.13,0c0-2.92,0-5.84,0-8.76
					C12.82,8.6,12.86,8.58,12.9,8.57z"/>
				<path class="st7" d="M14.7,27.41c-1.28,0-2.44,0-3.77,0c0-1.3-0.16-2.6,0.08-3.81c0.1-0.5,1.01-0.91,1.62-1.18
					c0.7-0.3,2.06,0.87,2.07,1.68C14.71,25.18,14.7,26.25,14.7,27.41z M14.28,27.03c0-1.08,0.16-2.08-0.06-2.97
					c-0.13-0.52-0.85-1.18-1.33-1.2c-0.5-0.02-1.37,0.54-1.48,1.02c-0.23,0.99-0.07,2.09-0.07,3.16
					C12.39,27.03,13.27,27.03,14.28,27.03z"/>
				<path class="st8" d="M14.28,27.03c-1.02,0-1.89,0-2.94,0c0-1.07-0.16-2.16,0.07-3.16c0.11-0.47,0.98-1.04,1.48-1.02
					c0.48,0.02,1.2,0.68,1.33,1.2C14.44,24.95,14.28,25.95,14.28,27.03z"/>
				<polygon class="st6" points="10.46,20.24 10.5,20.24 15.19,20.24 15.21,20.24 14.96,17.71 10.71,17.71 				"/>
				<rect x="9.2" y="20.46" class="st1" width="7.24" height="1.44"/>
				<path class="st4" d="M16.86,30.63c-2.69,0-5.39,0-8.08,0c-0.49,0.18-0.98,0.36-1.47,0.54h11.02
					C17.85,30.99,17.35,30.81,16.86,30.63z"/>
			</g>
		</g>
		<g>
			<g>
				<path class="st9" d="M67.65,31.7c2.37-0.57,4.71-1.31,6.97-2.26"/>
				<path class="st9" d="M58.63,33.08c2.02-0.16,4.04-0.41,6.04-0.76"/>
				<path class="st9" d="M50.73,33.3c1.82,0.03,3.65,0.01,5.47-0.07"/>
				<path class="st9" d="M45.4,33.09c0.98,0.06,1.97,0.11,2.96,0.14"/>
				<path class="st9" d="M39.5,32.65c1.18,0.1,2.36,0.2,3.54,0.29"/>
				<path class="st9" d="M33.71,32.11c1.16,0.11,2.31,0.22,3.47,0.32"/>
				<path class="st9" d="M27.93,31.61c1.15,0.09,2.31,0.19,3.46,0.29"/>
				<path class="st9" d="M21,31.21c1.54,0.05,3.08,0.13,4.62,0.23"/>
				<path class="st9" d="M15.45,31.2c1.11-0.03,2.21-0.05,3.32-0.04"/>
				<path class="st9" d="M10.34,31.79c1.06-0.17,2.13-0.31,3.2-0.42"/>
				<path class="st9" d="M3.95,33.08c1.51-0.37,3.02-0.69,4.54-0.97"/>
			</g>
			<g>
				<path class="st2" d="M53.58,25.33c-0.67,0.61-1.19,1.18-1.67,1.71c0.48,0,0.96-0.04,1.48-0.04c1.96-0.04,4.01-0.08,6.07-0.08
					h2.2c1.34,0.04,2.29-0.04,2.82-0.33c0.48-0.28,1.29-1.18,2.48-2.72h1.91c-1.53,1.79-2.82,3.98-3.92,6.54
					c-1.34-0.2-2.77-0.37-4.2-0.45c-1.48-0.12-3.06-0.16-4.68-0.16c-1.91,0-4.73,0.12-8.46,0.32l0.57-1.5
					c0.05-0.04,0.05-0.08,0.1-0.12c1.34-1.67,3.2-3.53,5.64-5.57V22.9c0.57-0.49,1.19-1.02,1.86-1.54c3.34-2.68,5.49-4.55,6.45-5.61
					c0.29-0.28,0.53-0.61,0.76-0.89c1.05-1.22,1.82-2.36,2.29-3.45C65.76,10.38,66,9.41,66,8.43c0-1.3-0.33-2.36-1.1-3.17
					c-0.1-0.08-0.14-0.16-0.24-0.24c-0.91-0.89-2.05-1.3-3.39-1.3c-1.15,0-2.25,0.33-3.3,1.02c-0.53,0.33-1,0.77-1.53,1.3
					c-0.1,0.12-0.24,0.24-0.33,0.41h-0.29l3.68-4.59c1.1-0.45,2.29-0.65,3.58-0.65c0.86,0,1.67,0.08,2.39,0.28
					c1.29,0.28,2.34,0.81,3.25,1.63c0.19,0.16,0.38,0.33,0.53,0.53c1.05,1.14,1.58,2.44,1.58,3.94c0,1.06-0.24,2.11-0.76,3.17
					c-0.48,1.1-1.34,2.23-2.48,3.37c-0.72,0.81-2.77,2.4-6.16,4.83C58.07,21.43,55.44,23.59,53.58,25.33z"/>
				<g>
					<path class="st2" d="M47.4,21.58l-0.33,2.34C47.18,23.22,47.3,22.47,47.4,21.58C47.4,21.58,47.4,21.58,47.4,21.58z"/>
					<path class="st2" d="M51.56,1.59l-0.43,0.04l-1.57,0.13c-0.67,0.57-1.29,1.14-1.86,1.67c0.86-0.08,1.82-0.16,2.87-0.24
						l0.55-0.07l-0.75,2.63c0,0,0,0,0.01-0.01c-0.88,2.88-1.76,7.44-2.65,13.58l-0.32,2.26c0,0,0,0,0,0
						c-0.11,0.89-0.22,1.65-0.33,2.34l-0.03,0.22l0.03-0.22c-0.19,1.17-0.39,2.09-0.57,2.7c-0.24,0.77-0.48,1.54-0.81,2.32
						c1.34-1.71,3.2-3.58,5.64-5.61l0.53-4.27l2.01-12.59l0.19-1.18c0.1-0.49,0.19-1.02,0.29-1.58c0.19-0.73,0.38-1.5,0.62-2.36
						L51.56,1.59z"/>
					<path class="st2" d="M29.68,30.01c1.72-1.91,3.73-4.35,6.02-7.35c4.59-0.08,7.98-0.12,10.13-0.12l0.24-1.75
						c-0.05,0-0.05,0-0.05,0c-0.76,0.04-1.53,0.08-2.2,0.08c-2.87,0-5.06-0.04-6.64-0.08l7.21-9.06c1.37-1.71,2.74-3.42,4.11-5.12
						c0.36-0.5,0.73-0.99,1.09-1.49c0.13-0.43,0.25-0.87,0.38-1.3c-0.55,0.05-1.09,0.1-1.64,0.15c-3.95,5.13-8.14,10.36-12.59,15.68
						c-2.98,3.56-5.96,7.01-8.93,10.36H29.68z"/>
				</g>
			</g>
		</g>
	</g>
	<g>
		<text transform="matrix(1.2384 0 0 1 87.7264 21.8621)" class="st10 st11 st12">A12 Jogja Tour</text>
		<line class="st13" x1="82.34" y1="2.39" x2="82.34" y2="32.61"/>
	</g>
</g>
</svg>
